<svg xmlns="http://www.w3.org/2000/svg" shape-rendering="geometricPrecision" text-rendering="geometricPrecision" image-rendering="optimizeQuality" fill-rule="evenodd" clip-rule="evenodd" viewBox="0 0 512 512">
  <defs>
    <linearGradient id="artsky-purple" x1="0%" y1="0%" x2="100%" y2="100%">
      <stop offset="0%" stop-color="#8B52EE"/>
      <stop offset="100%" stop-color="#7D55FC"/>
    </linearGradient>
    <clipPath id="artsky-abdomen">
      <ellipse cx="256" cy="334" rx="58" ry="80"/>
    </clipPath>
  </defs>
  <g fill="url(#artsky-purple)">
    <ellipse cx="156" cy="214" rx="104" ry="62" transform="rotate(-34 156 214)"/>
    <ellipse cx="356" cy="214" rx="104" ry="62" transform="rotate(34 356 214)"/>
  </g>
  <path fill="url(#artsky-purple)" d="M256 396 L236 432 L276 432 Z"/>
  <g fill="url(#artsky-purple)">
    <ellipse cx="256" cy="334" rx="58" ry="80"/>
    <ellipse cx="256" cy="262" rx="28" ry="18"/>
    <ellipse cx="256" cy="206" rx="50" ry="46"/>
    <circle cx="256" cy="118" r="48"/>
  </g>
  <g clip-path="url(#artsky-abdomen)">
    <rect x="190" y="278" width="132" height="14" fill="#3d2572"/>
    <rect x="190" y="308" width="132" height="14" fill="#3d2572"/>
    <rect x="190" y="338" width="132" height="14" fill="#3d2572"/>
    <rect x="190" y="368" width="132" height="14" fill="#3d2572"/>
  </g>
  <circle cx="228" cy="112" r="11" fill="#1a0f32"/>
  <circle cx="284" cy="112" r="11" fill="#1a0f32"/>
  <g fill="none" stroke-width="9" stroke-linecap="round" stroke-linejoin="round">
    <path stroke="url(#artsky-purple)" d="M232 82 Q 205 52 188 38"/>
    <path stroke="url(#artsky-purple)" d="M280 82 Q 307 52 324 38"/>
  </g>
  <g fill="url(#artsky-purple)">
    <circle cx="188" cy="38" r="7"/>
    <circle cx="324" cy="38" r="7"/>
  </g>
</svg>
