<svg xmlns="http://www.w3.org/2000/svg" width="512" height="512" viewBox="0 0 512 512" shape-rendering="geometricPrecision" fill-rule="evenodd" clip-rule="evenodd">
  <defs>
    <linearGradient id="artsky-logo-grad" x1="0%" y1="0%" x2="100%" y2="100%">
      <stop offset="0%" stop-color="#8B52EE"/>
      <stop offset="100%" stop-color="#7D55FC"/>
    </linearGradient>
    <clipPath id="artsky-logo-abdomen">
      <ellipse cx="256" cy="338" rx="68" ry="88"/>
    </clipPath>
  </defs>
  <g transform="translate(256 256) scale(1.12 1) translate(-256 -256)">
    <g fill="url(#artsky-logo-grad)">
      <ellipse cx="156" cy="214" rx="90" ry="54" transform="rotate(-34 156 214)"/>
      <ellipse cx="356" cy="214" rx="90" ry="54" transform="rotate(34 356 214)"/>
    </g>
    <path fill="url(#artsky-logo-grad)" d="M256 408 L228 434 L284 434 Z"/>
    <g fill="url(#artsky-logo-grad)">
      <ellipse cx="256" cy="338" rx="68" ry="88"/>
      <ellipse cx="256" cy="262" rx="28" ry="18"/>
      <ellipse cx="256" cy="206" rx="50" ry="46"/>
      <circle cx="256" cy="110" r="56"/>
    </g>
    <g clip-path="url(#artsky-logo-abdomen)">
      <rect x="188" y="282" width="136" height="14" fill="#3d2572"/>
      <rect x="188" y="312" width="136" height="14" fill="#3d2572"/>
      <rect x="188" y="342" width="136" height="14" fill="#3d2572"/>
      <rect x="188" y="372" width="136" height="14" fill="#3d2572"/>
    </g>
    <g fill="none" stroke-width="14" stroke-linecap="round" stroke-linejoin="round">
      <path stroke="url(#artsky-logo-grad)" d="M232 82 Q 205 52 188 38"/>
      <path stroke="url(#artsky-logo-grad)" d="M280 82 Q 307 52 324 38"/>
    </g>
    <g fill="url(#artsky-logo-grad)">
      <circle cx="188" cy="38" r="9"/>
      <circle cx="324" cy="38" r="9"/>
    </g>
  </g>
</svg>
