<svg xmlns="http://www.w3.org/2000/svg" shape-rendering="geometricPrecision" text-rendering="geometricPrecision" image-rendering="optimizeQuality" fill-rule="evenodd" clip-rule="evenodd" viewBox="0 0 512 512">
  <defs>
    <linearGradient id="artsky-purple-pwa-bg" x1="12%" y1="8%" x2="88%" y2="92%">
      <stop offset="0%" stop-color="#c18cff"/>
      <stop offset="52%" stop-color="#8b52ee"/>
      <stop offset="100%" stop-color="#5f33c8"/>
    </linearGradient>
  </defs>
  <rect width="512" height="512" rx="108" ry="108" fill="url(#artsky-purple-pwa-bg)"/>
  <g transform="translate(256, 256) scale(1.0304, 0.92) translate(-256, -256)" fill="#000000">
    <ellipse cx="156" cy="214" rx="90" ry="54" transform="rotate(-34 156 214)"/>
    <ellipse cx="356" cy="214" rx="90" ry="54" transform="rotate(34 356 214)"/>
    <path d="M256 408 L228 434 L284 434 Z"/>
    <ellipse cx="256" cy="338" rx="68" ry="88"/>
    <ellipse cx="256" cy="262" rx="28" ry="18"/>
    <ellipse cx="256" cy="206" rx="50" ry="46"/>
    <circle cx="256" cy="110" r="56"/>
    <path d="M232 82 Q 205 52 188 38" fill="none" stroke="#000000" stroke-width="14" stroke-linecap="round" stroke-linejoin="round"/>
    <path d="M280 82 Q 307 52 324 38" fill="none" stroke="#000000" stroke-width="14" stroke-linecap="round" stroke-linejoin="round"/>
    <circle cx="188" cy="38" r="9"/>
    <circle cx="324" cy="38" r="9"/>
  </g>
</svg>
