<svg xmlns="http://www.w3.org/2000/svg" shape-rendering="geometricPrecision" text-rendering="geometricPrecision" image-rendering="optimizeQuality" fill-rule="evenodd" clip-rule="evenodd" viewBox="0 0 512 512">
  <defs>
    <linearGradient id="artsky-purple-pwa" x1="0%" y1="0%" x2="100%" y2="100%">
      <stop offset="0%" stop-color="#8B52EE"/>
      <stop offset="100%" stop-color="#7D55FC"/>
    </linearGradient>
    <filter id="purpleShadow" x="-40%" y="-40%" width="180%" height="180%">
      <feDropShadow dx="0" dy="2" stdDeviation="8" flood-color="#5a3bb8" flood-opacity="0.5"/>
      <feDropShadow dx="0" dy="0" stdDeviation="12" flood-color="#8B52EE" flood-opacity="0.7"/>
      <feDropShadow dx="0" dy="0" stdDeviation="6" flood-color="#7D55FC" flood-opacity="0.9"/>
    </filter>
  </defs>
  <rect width="512" height="512" fill="url(#artsky-purple-pwa)"/>
  <g transform="translate(256, 256) scale(1.0304, 0.92) translate(-256, -256)" filter="url(#purpleShadow)">
    <defs>
      <clipPath id="artsky-abdomen-pwa">
        <ellipse cx="256" cy="338" rx="68" ry="88"/>
      </clipPath>
    </defs>
    <g fill="url(#artsky-purple-pwa)" stroke="#4a2d88" stroke-width="2.5" stroke-opacity="0.9">
      <ellipse cx="156" cy="214" rx="90" ry="54" transform="rotate(-34 156 214)"/>
      <ellipse cx="356" cy="214" rx="90" ry="54" transform="rotate(34 356 214)"/>
    </g>
    <path fill="url(#artsky-purple-pwa)" stroke="#4a2d88" stroke-width="2" stroke-opacity="0.9" d="M256 408 L228 434 L284 434 Z"/>
    <g fill="url(#artsky-purple-pwa)" stroke="#4a2d88" stroke-width="2.5" stroke-opacity="0.9">
      <ellipse cx="256" cy="338" rx="68" ry="88"/>
      <ellipse cx="256" cy="262" rx="28" ry="18"/>
      <ellipse cx="256" cy="206" rx="50" ry="46"/>
      <circle cx="256" cy="110" r="56"/>
    </g>
    <g clip-path="url(#artsky-abdomen-pwa)">
      <rect x="188" y="282" width="136" height="14" fill="#2a1848"/>
      <rect x="188" y="312" width="136" height="14" fill="#2a1848"/>
      <rect x="188" y="342" width="136" height="14" fill="#2a1848"/>
      <rect x="188" y="372" width="136" height="14" fill="#2a1848"/>
    </g>
    <g fill="none" stroke="#2a1848" stroke-width="14" stroke-linecap="round" stroke-linejoin="round">
      <path d="M232 82 Q 205 52 188 38"/>
      <path d="M280 82 Q 307 52 324 38"/>
    </g>
    <g fill="url(#artsky-purple-pwa)" stroke="#4a2d88" stroke-width="1.5">
      <circle cx="188" cy="38" r="9"/>
      <circle cx="324" cy="38" r="9"/>
    </g>
  </g>
</svg>
